<svg width="24" height="24" viewBox="0 0 24 24" fill="none" xmlns="http://www.w3.org/2000/svg">
<path d="M9 4H6C5.44772 4 5 4.44772 5 5V19C5 19.5523 5.44772 20 6 20H9C9.55228 20 10 19.5523 10 19V5C10 4.44772 9.55228 4 9 4Z" stroke="#333333" stroke-width="1.6" stroke-linecap="round" stroke-linejoin="round"/>
<path d="M14 4H11C10.4477 4 10 4.44772 10 5V19C10 19.5523 10.4477 20 11 20H14C14.5523 20 15 19.5523 15 19V5C15 4.44772 14.5523 4 14 4Z" stroke="#333333" stroke-width="1.6" stroke-linecap="round" stroke-linejoin="round"/>
<path d="M19 4H16C15.4477 4 15 4.44772 15 5V19C15 19.5523 15.4477 20 16 20H19C19.5523 20 20 19.5523 20 19V5C20 4.44772 19.5523 4 19 4Z" stroke="#333333" stroke-width="1.6" stroke-linecap="round" stroke-linejoin="round"/>
</svg>
