<svg width="24" height="24" viewBox="0 0 24 24" fill="none" xmlns="http://www.w3.org/2000/svg">
<g clip-path="url(#clip0_363_7900)">
<path d="M18.9969 16.8922C20.2115 16.6456 21.2911 15.9565 22.0261 14.9587C22.7612 13.9608 23.0992 12.7255 22.9747 11.4924C22.8501 10.2593 22.2719 9.11653 21.3521 8.28584C20.4324 7.45516 19.2368 6.99586 17.9974 6.9971H16.738C16.4069 5.71505 15.7626 4.53531 14.8629 3.56378C13.9632 2.59225 12.8363 1.85936 11.5834 1.43091C10.3305 1.00245 8.99083 0.891841 7.68464 1.10901C6.37844 1.32618 5.14662 1.86433 4.09977 2.67514C3.05292 3.48595 2.22382 4.54405 1.68689 5.75443C1.14996 6.96481 0.922022 8.28958 1.02353 9.60981C1.12505 10.93 1.55284 12.2044 2.26849 13.3185C2.98415 14.4325 3.96527 15.3514 5.12376 15.9927" stroke="#333333" stroke-width="1.6" stroke-linecap="round" stroke-linejoin="round"/>
<path d="M13 11L9 17H15L11 23" stroke="#333333" stroke-width="1.6" stroke-linecap="round" stroke-linejoin="round"/>
</g>
<defs>
<clipPath id="clip0_363_7900">
<rect width="24" height="24" fill="white"/>
</clipPath>
</defs>
</svg>
