<svg width="24" height="24" viewBox="0 0 24 24" fill="none" xmlns="http://www.w3.org/2000/svg">
<line x1="4.9501" y1="20.1" x2="4.9501" y2="3.9" stroke="#8B8F9F" stroke-width="1.8" stroke-linecap="round"/>
<path d="M22.3865 12.3365C22.7379 11.985 22.7379 11.4151 22.3865 11.0637L16.6589 5.33611C16.3074 4.98464 15.7376 4.98464 15.3861 5.33611C15.0346 5.68758 15.0346 6.25743 15.3861 6.6089L20.4773 11.7001L15.3861 16.7912C15.0346 17.1427 15.0346 17.7126 15.3861 18.064C15.7376 18.4155 16.3074 18.4155 16.6589 18.064L22.3865 12.3365ZM8.25 12.6001H15V10.8001H8.25V12.6001ZM15 12.6001L21.7501 12.6001V10.8001L15 10.8001V12.6001Z" fill="#8B8F9F"/>
</svg>
