<svg width="24" height="24" viewBox="0 0 24 24" fill="none" xmlns="http://www.w3.org/2000/svg">
<line x1="0.9" y1="-0.9" x2="17.1" y2="-0.9" transform="matrix(0 -1 -1 0 18.75 21)" stroke="#8B8F9F" stroke-width="1.8" stroke-linecap="round"/>
<path d="M2.21362 12.3365C1.86215 11.985 1.86215 11.4151 2.21362 11.0637L7.94119 5.33611C8.29266 4.98464 8.86251 4.98464 9.21398 5.33611C9.56545 5.68758 9.56545 6.25743 9.21398 6.6089L4.12281 11.7001L9.21398 16.7912C9.56545 17.1427 9.56545 17.7126 9.21398 18.064C8.86251 18.4155 8.29266 18.4155 7.94119 18.064L2.21362 12.3365ZM16.3501 12.6001H9.60006V10.8001H16.3501V12.6001ZM9.60006 12.6001L2.85002 12.6001V10.8001L9.60006 10.8001V12.6001Z" fill="#8B8F9F"/>
</svg>
