<svg width="16" height="16" viewBox="0 0 16 16" fill="none" xmlns="http://www.w3.org/2000/svg">
<g clip-path="url(#clip0_363_8139)">
<path d="M8.00016 10.6666C9.47292 10.6666 10.6668 9.47274 10.6668 7.99998C10.6668 6.52722 9.47292 5.33331 8.00016 5.33331C6.5274 5.33331 5.3335 6.52722 5.3335 7.99998C5.3335 9.47274 6.5274 10.6666 8.00016 10.6666Z" stroke="#333333" stroke-width="1.4" stroke-linecap="round" stroke-linejoin="round"/>
<path d="M10.6668 5.33333V8.66666C10.6668 9.19709 10.8775 9.7058 11.2526 10.0809C11.6277 10.4559 12.1364 10.6667 12.6668 10.6667C13.1973 10.6667 13.706 10.4559 14.0811 10.0809C14.4561 9.7058 14.6668 9.19709 14.6668 8.66666V7.99999C14.6667 6.49535 14.1577 5.03498 13.2224 3.85635C12.287 2.67772 10.9805 1.85014 9.51526 1.50819C8.04999 1.16624 6.51212 1.33002 5.15173 1.9729C3.79134 2.61579 2.68843 3.69996 2.02234 5.04914C1.35625 6.39832 1.16615 7.93315 1.48295 9.40407C1.79975 10.875 2.60482 12.1955 3.76726 13.1508C4.92969 14.1062 6.38112 14.6402 7.88555 14.6661C9.38997 14.692 10.8589 14.2082 12.0535 13.2933" stroke="#333333" stroke-width="1.4" stroke-linecap="round" stroke-linejoin="round"/>
</g>
<defs>
<clipPath id="clip0_363_8139">
<rect width="16" height="16" fill="white"/>
</clipPath>
</defs>
</svg>
