<svg width="16" height="16" viewBox="0 0 16 16" fill="none" xmlns="http://www.w3.org/2000/svg">
<path d="M10.8284 2.50489C11.5786 3.25503 12 4.27245 12 5.33331C12 9.99998 14 11.3333 14 11.3333H2C2 11.3333 4 9.99998 4 5.33331C4 4.27245 4.42143 3.25503 5.17157 2.50489C5.92172 1.75474 6.93913 1.33331 8 1.33331C9.06087 1.33331 10.0783 1.75474 10.8284 2.50489Z" stroke="#333333" stroke-width="1.4" stroke-linecap="round" stroke-linejoin="round"/>
<path d="M9.15335 14C9.03614 14.2021 8.86791 14.3698 8.6655 14.4864C8.46309 14.6029 8.2336 14.6643 8.00001 14.6643C7.76643 14.6643 7.53694 14.6029 7.33453 14.4864C7.13212 14.3698 6.96389 14.2021 6.84668 14" stroke="#333333" stroke-width="1.4" stroke-linecap="round" stroke-linejoin="round"/>
</svg>
