<svg width="16" height="16" viewBox="0 0 16 16" fill="none" xmlns="http://www.w3.org/2000/svg">
<g clip-path="url(#clip0_363_8313)">
<path d="M10.6665 8.66666V14" stroke="#333333" stroke-width="1.4" stroke-linecap="round" stroke-linejoin="round"/>
<path d="M5.3335 8.66666V14" stroke="#333333" stroke-width="1.4" stroke-linecap="round" stroke-linejoin="round"/>
<path d="M8 10V15.3333" stroke="#333333" stroke-width="1.4" stroke-linecap="round" stroke-linejoin="round"/>
<path d="M13.3371 11.0533C14.0379 10.7464 14.6118 10.2077 14.9625 9.52768C15.3131 8.84766 15.4192 8.06772 15.2628 7.31877C15.1065 6.56982 14.6972 5.89746 14.1038 5.41454C13.5104 4.93162 12.7689 4.66755 12.0038 4.66665H11.1638C10.9524 3.84833 10.5497 3.09195 9.98864 2.45985C9.42761 1.82775 8.72439 1.33803 7.93694 1.03106C7.1495 0.724093 6.30037 0.60866 5.45955 0.694278C4.61874 0.779896 3.81031 1.06411 3.1009 1.5235C2.39148 1.98289 1.80141 2.6043 1.3793 3.33651C0.957196 4.06872 0.715147 4.89076 0.673107 5.73488C0.631066 6.579 0.790238 7.42103 1.1375 8.19155C1.48477 8.96208 2.01018 9.63904 2.67043 10.1666" stroke="#333333" stroke-width="1.4" stroke-linecap="round" stroke-linejoin="round"/>
</g>
<defs>
<clipPath id="clip0_363_8313">
<rect width="16" height="16" fill="white"/>
</clipPath>
</defs>
</svg>
