<svg width="16" height="16" viewBox="0 0 16 16" fill="none" xmlns="http://www.w3.org/2000/svg">
<g clip-path="url(#clip0_363_8310)">
<path d="M15.0708 11.2474C15.2843 10.7434 15.3696 10.1943 15.319 9.64923C15.2684 9.10419 15.0836 8.58016 14.781 8.124C14.4784 7.66784 14.0676 7.29376 13.5851 7.0352C13.1026 6.77663 12.5636 6.64164 12.0162 6.64229H11.1813C10.9109 5.57714 10.316 4.62239 9.47912 3.91014C8.64222 3.19789 7.60465 2.76335 6.50996 2.66666M3.40234 3.32926C2.3674 3.90151 1.55354 4.80342 1.09023 5.8915C0.626923 6.97958 0.540775 8.19134 0.84549 9.33402C1.1502 10.4767 1.82828 11.4847 2.77185 12.1976C3.71543 12.9105 4.8703 13.2874 6.05276 13.2684H12.0162C12.4004 13.2679 12.7815 13.2006 13.1426 13.0696" stroke="#333333" stroke-width="1.4" stroke-linecap="round" stroke-linejoin="round"/>
<path d="M0.666504 0.666656L15.3332 15.3333" stroke="#333333" stroke-width="1.4" stroke-linecap="round" stroke-linejoin="round"/>
</g>
<defs>
<clipPath id="clip0_363_8310">
<rect width="16" height="16" fill="white"/>
</clipPath>
</defs>
</svg>
