<svg width="16" height="16" viewBox="0 0 16 16" fill="none" xmlns="http://www.w3.org/2000/svg">
<g clip-path="url(#clip0_363_8167)">
<path d="M5.3335 11.3333L8.00016 14L10.6668 11.3333" stroke="#333333" stroke-width="1.4" stroke-linecap="round" stroke-linejoin="round"/>
<path d="M8 8V14" stroke="#333333" stroke-width="1.4" stroke-linecap="round" stroke-linejoin="round"/>
<path d="M13.9181 12.0619C14.4973 11.6545 14.9317 11.0732 15.1582 10.4023C15.3847 9.73134 15.3915 9.00568 15.1776 8.33061C14.9637 7.65555 14.5403 7.0662 13.9687 6.64809C13.3972 6.22998 12.7073 6.00487 11.9992 6.00542H11.1597C10.9593 5.22446 10.5843 4.49914 10.0631 3.88405C9.54179 3.26897 8.88777 2.78015 8.15024 2.4544C7.41271 2.12866 6.6109 1.97447 5.80516 2.00344C4.99942 2.03242 4.21075 2.24381 3.49853 2.62169C2.7863 2.99957 2.16909 3.5341 1.69334 4.18504C1.21759 4.83598 0.895715 5.58637 0.751939 6.3797C0.608162 7.17304 0.646233 7.98866 0.863286 8.76516C1.08034 9.54165 1.47072 10.2588 2.00503 10.8626" stroke="#333333" stroke-width="1.4" stroke-linecap="round" stroke-linejoin="round"/>
</g>
<defs>
<clipPath id="clip0_363_8167">
<rect width="16" height="16" fill="white"/>
</clipPath>
</defs>
</svg>
