<svg width="16" height="16" viewBox="0 0 16 16" fill="none" xmlns="http://www.w3.org/2000/svg">
<g clip-path="url(#clip0_363_8168)">
<path d="M8.00016 14.6667C11.6821 14.6667 14.6668 11.6819 14.6668 8.00001C14.6668 4.31811 11.6821 1.33334 8.00016 1.33334C4.31826 1.33334 1.3335 4.31811 1.3335 8.00001C1.3335 11.6819 4.31826 14.6667 8.00016 14.6667Z" stroke="#333333" stroke-width="1.4" stroke-linecap="round" stroke-linejoin="round"/>
<path d="M5.70667 1.83334C8.62 5.85334 9.72 8.11334 11.06 13.6467M12.7533 3.39334C10.2733 6.29334 6.79333 7.16668 1.5 7.29334M14.5 8.56001C12.1667 7.94001 10.08 8.01334 8.54 8.56001C6.82 9.17334 5.2 10.4667 3.58 12.7733" stroke="#333333" stroke-width="1.4" stroke-linecap="round" stroke-linejoin="round"/>
</g>
<defs>
<clipPath id="clip0_363_8168">
<rect width="16" height="16" fill="white"/>
</clipPath>
</defs>
</svg>
