<svg width="16" height="16" viewBox="0 0 16 16" fill="none" xmlns="http://www.w3.org/2000/svg">
<g clip-path="url(#clip0_363_8181)">
<path d="M4.01691 2.01675C3.57933 2.45433 3.3335 3.04782 3.3335 3.66666C3.3335 4.2855 3.57933 4.87899 4.01691 5.31658C4.4545 5.75416 5.04799 5.99999 5.66683 5.99999H8.00016V1.33333H5.66683C5.04799 1.33333 4.4545 1.57916 4.01691 2.01675Z" stroke="#333333" stroke-width="1.4" stroke-linecap="round" stroke-linejoin="round"/>
<path d="M10.3333 1.33333H8V5.99999H10.3333C10.6398 5.99999 10.9432 5.93964 11.2263 5.82238C11.5094 5.70512 11.7666 5.53325 11.9832 5.31658C12.1999 5.09991 12.3718 4.84268 12.4891 4.55959C12.6063 4.2765 12.6667 3.97308 12.6667 3.66666C12.6667 3.36024 12.6063 3.05683 12.4891 2.77373C12.3718 2.49064 12.1999 2.23342 11.9832 2.01675C11.7666 1.80008 11.5094 1.6282 11.2263 1.51094C10.9432 1.39368 10.6398 1.33333 10.3333 1.33333Z" stroke="#333333" stroke-width="1.4" stroke-linecap="round" stroke-linejoin="round"/>
<path d="M8.17761 7.44041C8.06035 7.7235 8 8.02692 8 8.33333C8 8.63975 8.06035 8.94317 8.17761 9.22626C8.29488 9.50935 8.46675 9.76658 8.68342 9.98325C8.90009 10.1999 9.15731 10.3718 9.44041 10.4891C9.7235 10.6063 10.0269 10.6667 10.3333 10.6667C10.6398 10.6667 10.9432 10.6063 11.2263 10.4891C11.5094 10.3718 11.7666 10.1999 11.9832 9.98325C12.1999 9.76658 12.3718 9.50935 12.4891 9.22626C12.6063 8.94317 12.6667 8.63975 12.6667 8.33333C12.6667 8.02692 12.6063 7.7235 12.4891 7.44041C12.3718 7.15731 12.1999 6.90009 11.9832 6.68342C11.7666 6.46675 11.5094 6.29488 11.2263 6.17761C10.9432 6.06035 10.6398 6 10.3333 6C10.0269 6 9.7235 6.06035 9.44041 6.17761C9.15731 6.29488 8.90009 6.46675 8.68342 6.68342C8.46675 6.90009 8.29488 7.15731 8.17761 7.44041Z" stroke="#333333" stroke-width="1.4" stroke-linecap="round" stroke-linejoin="round"/>
<path d="M4.01691 11.3501C3.57933 11.7877 3.3335 12.3812 3.3335 13C3.3335 13.6188 3.57933 14.2123 4.01691 14.6499C4.4545 15.0875 5.04799 15.3333 5.66683 15.3333C6.28567 15.3333 6.87916 15.0875 7.31674 14.6499C7.75433 14.2123 8.00016 13.6188 8.00016 13V10.6667H5.66683C5.04799 10.6667 4.4545 10.9125 4.01691 11.3501Z" stroke="#333333" stroke-width="1.4" stroke-linecap="round" stroke-linejoin="round"/>
<path d="M4.01691 6.68342C3.57933 7.121 3.3335 7.71449 3.3335 8.33333C3.3335 8.95217 3.57933 9.54566 4.01691 9.98325C4.4545 10.4208 5.04799 10.6667 5.66683 10.6667H8.00016V6H5.66683C5.04799 6 4.4545 6.24583 4.01691 6.68342Z" stroke="#333333" stroke-width="1.4" stroke-linecap="round" stroke-linejoin="round"/>
</g>
<defs>
<clipPath id="clip0_363_8181">
<rect width="16" height="16" fill="white"/>
</clipPath>
</defs>
</svg>
