<svg width="16" height="16" viewBox="0 0 16 16" fill="none" xmlns="http://www.w3.org/2000/svg">
<path d="M3.99984 1.33333H9.33317L13.3332 5.33333V13.3333C13.3332 13.6869 13.1927 14.0261 12.9426 14.2761C12.6926 14.5262 12.3535 14.6667 11.9998 14.6667H3.99984C3.64622 14.6667 3.30708 14.5262 3.05703 14.2761C2.80698 14.0261 2.6665 13.6869 2.6665 13.3333V2.66666C2.6665 2.31304 2.80698 1.9739 3.05703 1.72385C3.30708 1.4738 3.64622 1.33333 3.99984 1.33333Z" stroke="#333333" stroke-width="1.4" stroke-linecap="round" stroke-linejoin="round"/>
<path d="M9.3335 1.33333V5.33333H13.3335" stroke="#333333" stroke-width="1.4" stroke-linecap="round" stroke-linejoin="round"/>
<path d="M10.6668 8.66667H5.3335" stroke="#333333" stroke-width="1.4" stroke-linecap="round" stroke-linejoin="round"/>
<path d="M10.6668 11.3333H5.3335" stroke="#333333" stroke-width="1.4" stroke-linecap="round" stroke-linejoin="round"/>
<path d="M6.66683 6H6.00016H5.3335" stroke="#333333" stroke-width="1.4" stroke-linecap="round" stroke-linejoin="round"/>
</svg>
