<svg width="16" height="16" viewBox="0 0 16 16" fill="none" xmlns="http://www.w3.org/2000/svg">
<path d="M14.2763 13.6095C14.5264 13.3594 14.6668 13.0203 14.6668 12.6667V5.33333C14.6668 4.97971 14.5264 4.64057 14.2763 4.39052C14.0263 4.14048 13.6871 4 13.3335 4H7.3335L6.00016 2H2.66683C2.31321 2 1.97407 2.14048 1.72402 2.39052C1.47397 2.64057 1.3335 2.97971 1.3335 3.33333V12.6667C1.3335 13.0203 1.47397 13.3594 1.72402 13.6095C1.97407 13.8595 2.31321 14 2.66683 14H13.3335C13.6871 14 14.0263 13.8595 14.2763 13.6095Z" stroke="#333333" stroke-width="1.4" stroke-linecap="round" stroke-linejoin="round"/>
<path d="M6 9.33333H10" stroke="#333333" stroke-width="1.4" stroke-linecap="round" stroke-linejoin="round"/>
</svg>
