<svg width="16" height="16" viewBox="0 0 16 16" fill="none" xmlns="http://www.w3.org/2000/svg">
<g clip-path="url(#clip0_363_8205)">
<path d="M13.3332 8V14.6667H2.6665V8" stroke="#333333" stroke-width="1.4" stroke-linecap="round" stroke-linejoin="round"/>
<path d="M14.6668 4.66667H1.3335V8H14.6668V4.66667Z" stroke="#333333" stroke-width="1.4" stroke-linecap="round" stroke-linejoin="round"/>
<path d="M8 14.6667V4.66667" stroke="#333333" stroke-width="1.4" stroke-linecap="round" stroke-linejoin="round"/>
<path d="M5.00016 4.66666H8.00016C8.00016 4.66666 7.3335 1.33333 5.00016 1.33333C4.55814 1.33333 4.13421 1.50892 3.82165 1.82148C3.50909 2.13404 3.3335 2.55797 3.3335 2.99999C3.3335 3.44202 3.50909 3.86595 3.82165 4.17851C4.13421 4.49107 4.55814 4.66666 5.00016 4.66666Z" stroke="#333333" stroke-width="1.4" stroke-linecap="round" stroke-linejoin="round"/>
<path d="M11 4.66666H8C8 4.66666 8.66667 1.33333 11 1.33333C11.442 1.33333 11.866 1.50892 12.1785 1.82148C12.4911 2.13404 12.6667 2.55797 12.6667 2.99999C12.6667 3.44202 12.4911 3.86595 12.1785 4.17851C11.866 4.49107 11.442 4.66666 11 4.66666Z" stroke="#333333" stroke-width="1.4" stroke-linecap="round" stroke-linejoin="round"/>
</g>
<defs>
<clipPath id="clip0_363_8205">
<rect width="16" height="16" fill="white"/>
</clipPath>
</defs>
</svg>
