<svg width="16" height="16" viewBox="0 0 16 16" fill="none" xmlns="http://www.w3.org/2000/svg">
<path d="M14.6668 8H1.3335" stroke="#333333" stroke-width="1.4" stroke-linecap="round" stroke-linejoin="round"/>
<path d="M1.3335 8.00001L3.6335 3.40667C3.74388 3.18453 3.91405 2.99759 4.12486 2.86686C4.33567 2.73613 4.57877 2.6668 4.82683 2.66667H11.1735C11.4216 2.6668 11.6647 2.73613 11.8755 2.86686C12.0863 2.99759 12.2564 3.18453 12.3668 3.40667L14.6668 8.00001V12C14.6668 12.3536 14.5264 12.6928 14.2763 12.9428C14.0263 13.1929 13.6871 13.3333 13.3335 13.3333H2.66683C2.31321 13.3333 1.97407 13.1929 1.72402 12.9428C1.47397 12.6928 1.3335 12.3536 1.3335 12V8.00001Z" stroke="#333333" stroke-width="1.4" stroke-linecap="round" stroke-linejoin="round"/>
<path d="M4 10.6667H4.00667" stroke="#333333" stroke-width="1.4" stroke-linecap="round" stroke-linejoin="round"/>
<path d="M6.6665 10.6667H6.67317" stroke="#333333" stroke-width="1.4" stroke-linecap="round" stroke-linejoin="round"/>
</svg>
