<svg width="16" height="16" viewBox="0 0 16 16" fill="none" xmlns="http://www.w3.org/2000/svg">
<g clip-path="url(#clip0_363_8224)">
<path d="M14.6668 4.66667C14.6668 2.82572 13.1744 1.33334 11.3335 1.33334H8.00016H4.66683C2.82588 1.33334 1.3335 2.82572 1.3335 4.66667V11.3333C1.3335 13.1743 2.82588 14.6667 4.66683 14.6667H11.3335C13.1744 14.6667 14.6668 13.1743 14.6668 11.3333V4.66667Z" stroke="#333333" stroke-width="1.4" stroke-linecap="round" stroke-linejoin="round"/>
<path d="M10.396 9.19935C10.6543 8.70148 10.7491 8.13483 10.6668 7.58C10.5829 7.01405 10.3192 6.4901 9.91459 6.08554C9.51003 5.68098 8.98608 5.41726 8.42013 5.33334C7.8653 5.25106 7.29865 5.34583 6.80079 5.60416C6.30292 5.8625 5.89919 6.27124 5.64701 6.77225C5.39484 7.27327 5.30707 7.84104 5.39618 8.39481C5.48528 8.94859 5.74674 9.46016 6.14336 9.85678C6.53997 10.2534 7.05155 10.5148 7.60532 10.604C8.1591 10.6931 8.72687 10.6053 9.22788 10.3531C9.72889 10.1009 10.1376 9.69721 10.396 9.19935Z" stroke="#333333" stroke-width="1.4" stroke-linecap="round" stroke-linejoin="round"/>
<path d="M11.6665 4.33334H11.6732" stroke="#333333" stroke-width="1.4" stroke-linecap="round" stroke-linejoin="round"/>
</g>
<defs>
<clipPath id="clip0_363_8224">
<rect width="16" height="16" fill="white"/>
</clipPath>
</defs>
</svg>
