<svg width="16" height="16" viewBox="0 0 16 16" fill="none" xmlns="http://www.w3.org/2000/svg">
<path d="M14.0002 1.33334L12.6669 2.66667M12.6669 2.66667L14.6669 4.66667L12.3335 7L10.3335 5M12.6669 2.66667L10.3335 5M7.59352 7.74C7.93774 8.07965 8.21139 8.48403 8.39869 8.92986C8.58599 9.3757 8.68325 9.85418 8.68487 10.3378C8.68649 10.8213 8.59244 11.3005 8.40813 11.7475C8.22382 12.1946 7.95289 12.6008 7.61095 12.9428C7.269 13.2847 6.8628 13.5556 6.41572 13.7399C5.96864 13.9243 5.48952 14.0183 5.00594 14.0167C4.52236 14.0151 4.04388 13.9178 3.59804 13.7305C3.15221 13.5432 2.74783 13.2696 2.40818 12.9253C1.74027 12.2338 1.37069 11.3076 1.37904 10.3462C1.3874 9.38481 1.77302 8.46516 2.45285 7.78533C3.13268 7.1055 4.05232 6.71989 5.01371 6.71153C5.9751 6.70318 6.90131 7.07276 7.59285 7.74067L7.59352 7.74ZM7.59352 7.74L10.3335 5" stroke="#333333" stroke-width="1.4" stroke-linecap="round" stroke-linejoin="round"/>
</svg>
