<svg width="16" height="16" viewBox="0 0 16 16" fill="none" xmlns="http://www.w3.org/2000/svg">
<path d="M13.4 10.2C13.7967 9.41459 14.0023 8.54658 14 7.66667V7.33333C13.9233 5.94377 13.3368 4.6313 12.3528 3.64724C11.3687 2.66317 10.0562 2.07666 8.66667 2H8.33333C7.45342 1.99771 6.58541 2.20329 5.8 2.6C4.85884 3.07038 4.06722 3.7935 3.51381 4.68837C2.96041 5.58323 2.66707 6.61451 2.66667 7.66667C2.66437 8.54658 2.86995 9.41459 3.26667 10.2L2 14L5.8 12.7333C6.58541 13.13 7.45342 13.3356 8.33333 13.3333C9.3855 13.3329 10.4168 13.0396 11.3116 12.4862C12.2065 11.9328 12.9296 11.1412 13.4 10.2Z" stroke="#333333" stroke-width="1.4" stroke-linecap="round" stroke-linejoin="round"/>
</svg>
