<svg width="16" height="16" viewBox="0 0 16 16" fill="none" xmlns="http://www.w3.org/2000/svg">
<g clip-path="url(#clip0_363_8293)">
<path d="M6.58579 1.25245C6.96086 0.877382 7.46957 0.666668 8 0.666668C8.53043 0.666668 9.03914 0.877382 9.41421 1.25245C9.78929 1.62753 10 2.13623 10 2.66667V8C10 8.53043 9.78929 9.03914 9.41421 9.41421C9.03914 9.78929 8.53043 10 8 10C7.46957 10 6.96086 9.78929 6.58579 9.41421C6.21071 9.03914 6 8.53043 6 8V2.66667C6 2.13623 6.21071 1.62753 6.58579 1.25245Z" stroke="#333333" stroke-width="1.4" stroke-linecap="round" stroke-linejoin="round"/>
<path d="M12.6668 6.66667V8C12.6668 9.23768 12.1752 10.4247 11.3 11.2998C10.4248 12.175 9.23784 12.6667 8.00016 12.6667C6.76249 12.6667 5.5755 12.175 4.70033 11.2998C3.82516 10.4247 3.3335 9.23768 3.3335 8V6.66667" stroke="#333333" stroke-width="1.4" stroke-linecap="round" stroke-linejoin="round"/>
<path d="M8 12.6667V15.3333" stroke="#333333" stroke-width="1.4" stroke-linecap="round" stroke-linejoin="round"/>
<path d="M5.3335 15.3333H10.6668" stroke="#333333" stroke-width="1.4" stroke-linecap="round" stroke-linejoin="round"/>
</g>
<defs>
<clipPath id="clip0_363_8293">
<rect width="16" height="16" fill="white"/>
</clipPath>
</defs>
</svg>
