<svg width="16" height="16" viewBox="0 0 16 16" fill="none" xmlns="http://www.w3.org/2000/svg">
<g clip-path="url(#clip0_363_8323)">
<path d="M12.6665 0.666664L15.3332 3.33333L12.6665 6" stroke="#333333" stroke-width="1.4" stroke-linecap="round" stroke-linejoin="round"/>
<path d="M10 3.33334H15.3333" stroke="#333333" stroke-width="1.4" stroke-linecap="round" stroke-linejoin="round"/>
<path d="M14.6665 13.28V11.28C14.6746 10.953 14.5622 10.6345 14.3508 10.385C14.1394 10.1355 13.8436 9.97235 13.5198 9.92667C12.8797 9.84225 12.2513 9.6857 11.6465 9.46C11.4078 9.3703 11.1485 9.35089 10.8992 9.40406C10.6499 9.45723 10.4211 9.58076 10.2398 9.76L9.39313 10.6067C7.7241 9.65763 6.34216 8.2757 5.39313 6.60667L6.23979 5.76C6.41903 5.57874 6.54256 5.3499 6.59573 5.10059C6.6489 4.85127 6.62949 4.59195 6.53979 4.35333C6.31409 3.74848 6.15754 3.12004 6.07313 2.48C6.02784 2.15963 5.86761 1.86666 5.6223 1.65569C5.37699 1.44472 5.06333 1.33015 4.73979 1.33333H2.73979C2.55469 1.33351 2.37164 1.37222 2.20232 1.44701C2.033 1.5218 1.8811 1.63103 1.7563 1.76775C1.63151 1.90446 1.53654 2.06566 1.47746 2.24108C1.41838 2.41651 1.39647 2.60231 1.41313 2.78667C1.63195 4.84733 2.33311 6.82747 3.45979 8.56667C4.48335 10.1774 5.84901 11.5431 7.45979 12.5667C9.19113 13.6894 11.1617 14.3904 13.2131 14.6133C13.398 14.63 13.5844 14.608 13.7603 14.5485C13.9362 14.489 14.0977 14.3934 14.2345 14.2679C14.3713 14.1424 14.4804 13.9897 14.5548 13.8196C14.6292 13.6494 14.6672 13.4657 14.6665 13.28Z" stroke="#333333" stroke-width="1.4" stroke-linecap="round" stroke-linejoin="round"/>
</g>
<defs>
<clipPath id="clip0_363_8323">
<rect width="16" height="16" fill="white"/>
</clipPath>
</defs>
</svg>
