<svg width="16" height="16" viewBox="0 0 16 16" fill="none" xmlns="http://www.w3.org/2000/svg">
<g clip-path="url(#clip0_363_8230)">
<path d="M15.3335 2.66667V6.66667H11.3335" stroke="#333333" stroke-width="1.4" stroke-linecap="round" stroke-linejoin="round"/>
<path d="M13.6598 10C13.2264 11.2266 12.4061 12.2792 11.3225 12.999C10.2389 13.7189 8.95073 14.067 7.65204 13.9911C6.35335 13.9151 5.11453 13.4191 4.12226 12.5778C3.12999 11.7365 2.43804 10.5955 2.15067 9.32671C1.8633 8.05793 1.99608 6.73013 2.529 5.54338C3.06192 4.35664 3.96612 3.37525 5.10533 2.7471C6.24454 2.11895 7.55704 1.87807 8.84506 2.06077C10.1331 2.24346 11.3268 2.83983 12.2464 3.76L15.3331 6.66667" stroke="#333333" stroke-width="1.4" stroke-linecap="round" stroke-linejoin="round"/>
</g>
<defs>
<clipPath id="clip0_363_8230">
<rect width="16" height="16" fill="white"/>
</clipPath>
</defs>
</svg>
