<svg width="16" height="16" viewBox="0 0 16 16" fill="none" xmlns="http://www.w3.org/2000/svg">
<g clip-path="url(#clip0_363_8243)">
<path d="M8 10C9.10457 10 10 9.10457 10 8C10 6.89543 9.10457 6 8 6C6.89543 6 6 6.89543 6 8C6 9.10457 6.89543 10 8 10Z" stroke="#333333" stroke-width="1.4" stroke-linecap="round" stroke-linejoin="round"/>
<path d="M12.8572 10.6404C12.818 10.4241 12.8444 10.2011 12.9332 10C13.0177 9.80283 13.158 9.63466 13.3369 9.51621C13.5157 9.39776 13.7253 9.33419 13.9398 9.33334H13.9998C14.3535 9.33334 14.6926 9.19286 14.9426 8.94281C15.1927 8.69277 15.3332 8.35363 15.3332 8.00001C15.3332 7.64638 15.1927 7.30724 14.9426 7.0572C14.6926 6.80715 14.3535 6.66667 13.9998 6.66667H13.8865C13.672 6.66582 13.4624 6.60225 13.2835 6.4838C13.1047 6.36535 12.9643 6.19718 12.8798 6.00001V5.94667C12.7911 5.74559 12.7646 5.52254 12.8038 5.30628C12.843 5.09002 12.9461 4.89046 13.0998 4.73334L13.1398 4.69334C13.2638 4.56951 13.3622 4.42246 13.4293 4.26059C13.4963 4.09873 13.5309 3.92523 13.5309 3.75001C13.5309 3.57478 13.4963 3.40128 13.4293 3.23942C13.3622 3.07755 13.2638 2.9305 13.1398 2.80667C13.016 2.6827 12.869 2.58436 12.7071 2.51726C12.5452 2.45016 12.3717 2.41562 12.1965 2.41562C12.0213 2.41562 11.8478 2.45016 11.6859 2.51726C11.5241 2.58436 11.377 2.6827 11.2532 2.80667L11.2132 2.84667C11.0561 3.00036 10.8565 3.10346 10.6402 3.14267C10.424 3.18189 10.2009 3.15542 9.99984 3.06667C9.80266 2.98216 9.63449 2.84184 9.51604 2.66298C9.39759 2.48412 9.33403 2.27453 9.33317 2.06001V2.00001C9.33317 1.64638 9.19269 1.30724 8.94265 1.0572C8.6926 0.807148 8.35346 0.666672 7.99984 0.666672C7.64622 0.666672 7.30708 0.807148 7.05703 1.0572C6.80698 1.30724 6.6665 1.64638 6.6665 2.00001V2.11334C6.66565 2.32786 6.60208 2.53746 6.48363 2.71632C6.36518 2.89518 6.19702 3.0355 5.99984 3.12001H5.9465C5.74543 3.20875 5.52238 3.23522 5.30611 3.19601C5.08985 3.1568 4.89029 3.0537 4.73317 2.90001L4.69317 2.86001C4.56934 2.73604 4.42229 2.63769 4.26042 2.57059C4.09856 2.50349 3.92506 2.46896 3.74984 2.46896C3.57462 2.46896 3.40111 2.50349 3.23925 2.57059C3.07739 2.63769 2.93033 2.73604 2.8065 2.86001C2.68254 2.98384 2.58419 3.13089 2.51709 3.29275C2.44999 3.45462 2.41546 3.62812 2.41546 3.80334C2.41546 3.97856 2.44999 4.15206 2.51709 4.31393C2.58419 4.47579 2.68254 4.62284 2.8065 4.74667L2.8465 4.78667C3.0002 4.94379 3.10329 5.14335 3.14251 5.35961C3.18172 5.57588 3.15525 5.79893 3.0665 6.00001C2.99031 6.20716 2.85357 6.38661 2.67404 6.51501C2.49451 6.64342 2.2805 6.71484 2.05984 6.72001H1.99984C1.64622 6.72001 1.30708 6.86048 1.05703 7.11053C0.80698 7.36058 0.666504 7.69972 0.666504 8.05334C0.666504 8.40696 0.80698 8.7461 1.05703 8.99615C1.30708 9.2462 1.64622 9.38667 1.99984 9.38667H2.11317C2.3277 9.38753 2.53729 9.45109 2.71615 9.56954C2.89501 9.68799 3.03533 9.85616 3.11984 10.0533C3.20858 10.2544 3.23505 10.4775 3.19584 10.6937C3.15663 10.91 3.05353 11.1096 2.89984 11.2667L2.85984 11.3067C2.73587 11.4305 2.63752 11.5776 2.57042 11.7394C2.50333 11.9013 2.46879 12.0748 2.46879 12.25C2.46879 12.4252 2.50333 12.5987 2.57042 12.7606C2.63752 12.9225 2.73587 13.0695 2.85984 13.1933C2.98367 13.3173 3.13072 13.4157 3.29258 13.4828C3.45445 13.5499 3.62795 13.5844 3.80317 13.5844C3.97839 13.5844 4.15189 13.5499 4.31376 13.4828C4.47562 13.4157 4.62267 13.3173 4.7465 13.1933L4.7865 13.1533C4.94362 12.9996 5.14318 12.8965 5.35945 12.8573C5.57571 12.8181 5.79876 12.8446 5.99984 12.9333C6.20699 13.0095 6.38644 13.1463 6.51484 13.3258C6.64325 13.5053 6.71468 13.7193 6.71984 13.94V14C6.71984 14.3536 6.86031 14.6928 7.11036 14.9428C7.36041 15.1929 7.69955 15.3333 8.05317 15.3333C8.40679 15.3333 8.74593 15.1929 8.99598 14.9428C9.24603 14.6928 9.3865 14.3536 9.3865 14V13.8867C9.38736 13.6721 9.45092 13.4626 9.56938 13.2837C9.68783 13.1048 9.85599 12.9645 10.0532 12.88C10.2542 12.7913 10.4773 12.7648 10.6936 12.804C10.9098 12.8432 11.1094 12.9463 11.2665 13.1L11.3065 13.14C11.4303 13.264 11.5774 13.3623 11.7393 13.4294C11.9011 13.4965 12.0746 13.5311 12.2498 13.5311C12.4251 13.5311 12.5986 13.4965 12.7604 13.4294C12.9223 13.3623 13.0693 13.264 13.1932 13.14C13.3171 13.0162 13.4155 12.8691 13.4826 12.7073C13.5497 12.5454 13.5842 12.3719 13.5842 12.1967C13.5842 12.0215 13.5497 11.8479 13.4826 11.6861C13.4155 11.5242 13.3171 11.3772 13.1932 11.2533L13.1532 11.2133C12.9995 11.0562 12.8964 10.8567 12.8572 10.6404Z" stroke="#333333" stroke-width="1.4" stroke-linecap="round" stroke-linejoin="round"/>
</g>
<defs>
<clipPath id="clip0_363_8243">
<rect width="16" height="16" fill="white"/>
</clipPath>
</defs>
</svg>
