<svg width="16" height="16" viewBox="0 0 16 16" fill="none" xmlns="http://www.w3.org/2000/svg">
<path d="M11.9998 1.33334H3.99984C3.26346 1.33334 2.6665 1.9303 2.6665 2.66668V13.3333C2.6665 14.0697 3.26346 14.6667 3.99984 14.6667H11.9998C12.7362 14.6667 13.3332 14.0697 13.3332 13.3333V2.66668C13.3332 1.9303 12.7362 1.33334 11.9998 1.33334Z" stroke="#333333" stroke-width="1.4" stroke-linecap="round" stroke-linejoin="round"/>
<path d="M8.00016 12C9.47292 12 10.6668 10.8061 10.6668 9.33332C10.6668 7.86056 9.47292 6.66666 8.00016 6.66666C6.5274 6.66666 5.3335 7.86056 5.3335 9.33332C5.3335 10.8061 6.5274 12 8.00016 12Z" stroke="#333333" stroke-width="1.4" stroke-linecap="round" stroke-linejoin="round"/>
<path d="M8 4H8.00667" stroke="#333333" stroke-width="1.4" stroke-linecap="round" stroke-linejoin="round"/>
</svg>
