<svg width="16" height="16" viewBox="0 0 16 16" fill="none" xmlns="http://www.w3.org/2000/svg">
<g clip-path="url(#clip0_363_8360)">
<path d="M11.3334 8.66667L8.66669 14.6667C8.13625 14.6667 7.62755 14.456 7.25247 14.0809C6.8774 13.7058 6.66669 13.1971 6.66669 12.6667V10H2.89335C2.70008 10.0022 2.50864 9.96234 2.33231 9.8832C2.15597 9.80405 1.99894 9.68752 1.87211 9.54166C1.74529 9.39581 1.65168 9.22413 1.59779 9.03851C1.5439 8.85289 1.53102 8.65777 1.56002 8.46667L2.48002 2.46667C2.52824 2.14874 2.68973 1.85894 2.93475 1.65067C3.17977 1.4424 3.4918 1.32971 3.81335 1.33334H11.3334M11.3334 8.66667V1.33334M11.3334 8.66667H13.1134C13.4907 8.67335 13.8573 8.54125 14.1436 8.29546C14.43 8.04967 14.6161 7.7073 14.6667 7.33334V2.66667C14.6161 2.29271 14.43 1.95034 14.1436 1.70455C13.8573 1.45876 13.4907 1.32667 13.1134 1.33334H11.3334" stroke="#333333" stroke-width="1.4" stroke-linecap="round" stroke-linejoin="round"/>
</g>
<defs>
<clipPath id="clip0_363_8360">
<rect width="16" height="16" fill="white"/>
</clipPath>
</defs>
</svg>
