<svg width="16" height="16" viewBox="0 0 16 16" fill="none" xmlns="http://www.w3.org/2000/svg">
<path d="M9.60933 4.66666C9.60933 4.49216 9.67775 4.32462 9.7999 4.2L9.80657 4.19333L12.3132 1.68666C11.5724 1.35144 10.7471 1.24994 9.94714 1.39569C9.1472 1.54144 8.41067 1.92752 7.83572 2.50248C7.26076 3.07743 6.87468 3.81396 6.72893 4.6139C6.58318 5.41384 6.68468 6.2392 7.0199 6.98L2.41324 11.5867C2.14802 11.8519 1.99902 12.2116 1.99902 12.5867C1.99902 12.9617 2.14802 13.3214 2.41324 13.5867C2.67845 13.8519 3.03816 14.0009 3.41324 14.0009C3.78831 14.0009 4.14802 13.8519 4.41324 13.5867L9.0199 8.98C9.7607 9.31522 10.5861 9.41672 11.386 9.27097C12.1859 9.12522 12.9225 8.73914 13.4974 8.16418C14.0724 7.58923 14.4585 6.8527 14.6042 6.05276C14.75 5.25282 14.6485 4.42746 14.3132 3.68666L11.7999 6.2C11.6753 6.32215 11.5077 6.39057 11.3332 6.39057C11.1587 6.39057 10.9912 6.32215 10.8666 6.2L9.7999 5.13333C9.67775 5.00871 9.60933 4.84117 9.60933 4.66666Z" stroke="#333333" stroke-width="1.4" stroke-linecap="round" stroke-linejoin="round"/>
</svg>
