<svg width="16" height="16" viewBox="0 0 16 16" fill="none" xmlns="http://www.w3.org/2000/svg">
<g clip-path="url(#clip0_363_8388)">
<path d="M10.6665 10.6667V11.3333C10.6665 11.687 10.526 12.0261 10.276 12.2762C10.0259 12.5262 9.68679 12.6667 9.33317 12.6667H1.99984C1.64622 12.6667 1.30708 12.5262 1.05703 12.2762C0.80698 12.0261 0.666504 11.687 0.666504 11.3333V4.66668C0.666504 4.31305 0.80698 3.97392 1.05703 3.72387C1.30708 3.47382 1.64622 3.33334 1.99984 3.33334H3.33317M7.1065 3.33334H9.33317C9.68679 3.33334 10.0259 3.47382 10.276 3.72387C10.526 3.97392 10.6665 4.31305 10.6665 4.66668V6.89334L11.3332 7.56001L15.3332 4.66668V11.3333" stroke="#333333" stroke-width="1.4" stroke-linecap="round" stroke-linejoin="round"/>
<path d="M0.666504 0.666656L15.3332 15.3333" stroke="#333333" stroke-width="1.4" stroke-linecap="round" stroke-linejoin="round"/>
</g>
<defs>
<clipPath id="clip0_363_8388">
<rect width="16" height="16" fill="white"/>
</clipPath>
</defs>
</svg>
