<svg width="16" height="16" viewBox="0 0 16 16" fill="none" xmlns="http://www.w3.org/2000/svg">
<g clip-path="url(#clip0_363_8410)">
<path d="M14.5593 3.43959C14.7864 3.6737 14.9477 3.9636 15.0269 4.27999C15.2384 5.45246 15.341 6.64196 15.3336 7.83332C15.3378 9.00688 15.2351 10.1784 15.0269 11.3333C14.9477 11.6497 14.7864 11.9396 14.5593 12.1737C14.3322 12.4078 14.0474 12.5779 13.7336 12.6667C12.5869 12.9733 8.00022 12.9733 8.00022 12.9733C8.00022 12.9733 3.41355 12.9733 2.26689 12.6667C1.95943 12.5825 1.67887 12.4205 1.45231 12.1963C1.22576 11.9721 1.06086 11.6932 0.973552 11.3867C0.762063 10.2142 0.659405 9.02469 0.666885 7.83332C0.661042 6.65086 0.763695 5.47036 0.973552 4.30666C1.05274 3.99026 1.21403 3.70037 1.44112 3.46626C1.6682 3.23215 1.95305 3.06211 2.26689 2.97332C3.41355 2.66666 8.00022 2.66666 8.00022 2.66666C8.00022 2.66666 12.5869 2.66666 13.7336 2.94666C14.0474 3.03545 14.3322 3.20548 14.5593 3.43959Z" stroke="#333333" stroke-width="1.4" stroke-linecap="round" stroke-linejoin="round"/>
<path d="M10.3333 7.83332L6.5 10.0133V5.65332L10.3333 7.83332Z" stroke="#333333" stroke-width="1.4" stroke-linecap="round" stroke-linejoin="round"/>
</g>
<defs>
<clipPath id="clip0_363_8410">
<rect width="16" height="16" fill="white"/>
</clipPath>
</defs>
</svg>
