<svg width="16" height="16" viewBox="0 0 16 16" fill="none" xmlns="http://www.w3.org/2000/svg">
<path d="M3.3335 11.3333H2.66683C2.31321 11.3333 1.97407 11.1929 1.72402 10.9428C1.47397 10.6928 1.3335 10.3536 1.3335 10V3.33333C1.3335 2.97971 1.47397 2.64057 1.72402 2.39052C1.97407 2.14048 2.31321 2 2.66683 2H8.00016H13.3335C13.6871 2 14.0263 2.14048 14.2763 2.39052C14.5264 2.64057 14.6668 2.97971 14.6668 3.33333V10C14.6668 10.3536 14.5264 10.6928 14.2763 10.9428C14.0263 11.1929 13.6871 11.3333 13.3335 11.3333H12.6668" stroke="#333333" stroke-width="1.4" stroke-linecap="round" stroke-linejoin="round"/>
<path d="M11.3332 14L7.99984 10L4.6665 14H11.3332Z" stroke="#333333" stroke-width="1.4" stroke-linecap="round" stroke-linejoin="round"/>
</svg>
