<svg width="16" height="16" viewBox="0 0 16 16" fill="none" xmlns="http://www.w3.org/2000/svg">
<g clip-path="url(#clip0_363_8146)">
<path d="M9.15335 14C9.03614 14.2021 8.86791 14.3698 8.6655 14.4864C8.46309 14.6029 8.2336 14.6643 8.00001 14.6643C7.76643 14.6643 7.53694 14.6029 7.33453 14.4864C7.13212 14.3698 6.96389 14.2021 6.84668 14" stroke="#333333" stroke-width="1.4" stroke-linecap="round" stroke-linejoin="round"/>
<path d="M12.4201 8.66665C12.1235 7.58092 11.9821 6.45868 12.0001 5.33331" stroke="#333333" stroke-width="1.4" stroke-linecap="round" stroke-linejoin="round"/>
<path d="M4.17333 4.17334C4.05751 4.54908 3.99907 4.94015 4 5.33334C4 10 2 11.3333 2 11.3333H11.3333" stroke="#333333" stroke-width="1.4" stroke-linecap="round" stroke-linejoin="round"/>
<path d="M11.9998 5.33333C12.0009 4.6087 11.8051 3.8974 11.4333 3.27539C11.0616 2.65338 10.5279 2.14403 9.8892 1.80175C9.25051 1.45948 8.53083 1.29712 7.80705 1.33204C7.08327 1.36696 6.38256 1.59783 5.77979 2" stroke="#333333" stroke-width="1.4" stroke-linecap="round" stroke-linejoin="round"/>
<path d="M0.666504 0.666687L15.3332 15.3334" stroke="#333333" stroke-width="1.4" stroke-linecap="round" stroke-linejoin="round"/>
</g>
<defs>
<clipPath id="clip0_363_8146">
<rect width="16" height="16" fill="white"/>
</clipPath>
</defs>
</svg>
