<svg width="16" height="16" viewBox="0 0 16 16" fill="none" xmlns="http://www.w3.org/2000/svg">
<g clip-path="url(#clip0_363_8247)">
<path d="M14.9426 13.6095C15.1927 13.3594 15.3332 13.0203 15.3332 12.6667V5.33333C15.3332 4.97971 15.1927 4.64057 14.9426 4.39052C14.6926 4.14048 14.3535 4 13.9998 4H11.3332L9.99984 2H5.99984L4.6665 4H1.99984C1.64622 4 1.30708 4.14048 1.05703 4.39052C0.80698 4.64057 0.666504 4.97971 0.666504 5.33333V12.6667C0.666504 13.0203 0.80698 13.3594 1.05703 13.6095C1.30708 13.8595 1.64622 14 1.99984 14H13.9998C14.3535 14 14.6926 13.8595 14.9426 13.6095Z" stroke="#333333" stroke-width="1.4" stroke-linecap="round" stroke-linejoin="round"/>
<path d="M8.00016 11.3333C9.47292 11.3333 10.6668 10.1394 10.6668 8.66667C10.6668 7.19391 9.47292 6 8.00016 6C6.5274 6 5.3335 7.19391 5.3335 8.66667C5.3335 10.1394 6.5274 11.3333 8.00016 11.3333Z" stroke="#333333" stroke-width="1.4" stroke-linecap="round" stroke-linejoin="round"/>
</g>
<defs>
<clipPath id="clip0_363_8247">
<rect width="16" height="16" fill="white"/>
</clipPath>
</defs>
</svg>
