<svg width="16" height="16" viewBox="0 0 16 16" fill="none" xmlns="http://www.w3.org/2000/svg">
<g clip-path="url(#clip0_363_8250)">
<path d="M0.666504 0.666656L15.3332 15.3333" stroke="#333333" stroke-width="1.4" stroke-linecap="round" stroke-linejoin="round"/>
<path d="M13.9998 14H1.99984C1.64622 14 1.30708 13.8595 1.05703 13.6095C0.80698 13.3594 0.666504 13.0203 0.666504 12.6667V5.33333C0.666504 4.97971 0.80698 4.64057 1.05703 4.39052C1.30708 4.14048 1.64622 4 1.99984 4H3.99984M5.99984 2H9.99984L11.3332 4H13.9998C14.3535 4 14.6926 4.14048 14.9426 4.39052C15.1927 4.64057 15.3332 4.97971 15.3332 5.33333V11.56M10.1865 10.1867C9.96524 10.51 9.67543 10.7807 9.3377 10.9793C8.99997 11.178 8.62261 11.2997 8.23247 11.336C7.84233 11.3722 7.44899 11.3221 7.08044 11.1891C6.71189 11.056 6.37718 10.8434 6.10012 10.5664C5.82306 10.2893 5.61046 9.95462 5.47744 9.58606C5.34442 9.21751 5.29425 8.82418 5.33051 8.43404C5.36676 8.0439 5.48854 7.66654 5.68719 7.32881C5.88584 6.99107 6.15647 6.70127 6.47984 6.48" stroke="#333333" stroke-width="1.4" stroke-linecap="round" stroke-linejoin="round"/>
</g>
<defs>
<clipPath id="clip0_363_8250">
<rect width="16" height="16" fill="white"/>
</clipPath>
</defs>
</svg>
