<svg width="16" height="16" viewBox="0 0 16 16" fill="none" xmlns="http://www.w3.org/2000/svg">
<path d="M1.3335 10.7333C1.97409 10.864 2.56212 11.1801 3.02442 11.6424C3.48671 12.1047 3.80285 12.6927 3.9335 13.3333M1.3335 8.03332C2.68736 8.1839 3.94968 8.79069 4.91291 9.75391C5.87613 10.7171 6.48292 11.9795 6.6335 13.3333M1.3335 5.33332V3.99999C1.3335 3.64637 1.47397 3.30723 1.72402 3.05718C1.97407 2.80713 2.31321 2.66666 2.66683 2.66666H13.3335C13.6871 2.66666 14.0263 2.80713 14.2763 3.05718C14.5264 3.30723 14.6668 3.64637 14.6668 3.99999V12C14.6668 12.3536 14.5264 12.6928 14.2763 12.9428C14.0263 13.1928 13.6871 13.3333 13.3335 13.3333H9.3335" stroke="#333333" stroke-width="1.4" stroke-linecap="round" stroke-linejoin="round"/>
<path d="M1.3335 13.3333H1.34016" stroke="#333333" stroke-width="1.4" stroke-linecap="round" stroke-linejoin="round"/>
</svg>
