<svg width="16" height="16" viewBox="0 0 16 16" fill="none" xmlns="http://www.w3.org/2000/svg">
<g clip-path="url(#clip0_363_8289)">
<path d="M8.00016 14.6667C11.6821 14.6667 14.6668 11.6819 14.6668 8.00001C14.6668 4.31811 11.6821 1.33334 8.00016 1.33334C4.31826 1.33334 1.3335 4.31811 1.3335 8.00001C1.3335 11.6819 4.31826 14.6667 8.00016 14.6667Z" stroke="#333333" stroke-width="1.4" stroke-linecap="round" stroke-linejoin="round"/>
<path d="M8.00016 10.6667C9.47292 10.6667 10.6668 9.47277 10.6668 8.00001C10.6668 6.52725 9.47292 5.33334 8.00016 5.33334C6.5274 5.33334 5.3335 6.52725 5.3335 8.00001C5.3335 9.47277 6.5274 10.6667 8.00016 10.6667Z" stroke="#333333" stroke-width="1.4" stroke-linecap="round" stroke-linejoin="round"/>
<path d="M14.1133 5.33334H8" stroke="#333333" stroke-width="1.4" stroke-linecap="round" stroke-linejoin="round"/>
<path d="M2.6333 4.04001L5.6933 9.33334" stroke="#333333" stroke-width="1.4" stroke-linecap="round" stroke-linejoin="round"/>
<path d="M7.25342 14.6267L10.3068 9.33334" stroke="#333333" stroke-width="1.4" stroke-linecap="round" stroke-linejoin="round"/>
</g>
<defs>
<clipPath id="clip0_363_8289">
<rect width="16" height="16" fill="white"/>
</clipPath>
</defs>
</svg>
