<svg width="16" height="16" viewBox="0 0 16 16" fill="none" xmlns="http://www.w3.org/2000/svg">
<path d="M5.66683 2.66666H4.3335C3.78121 2.66666 3.3335 3.11437 3.3335 3.66666V12.3333C3.3335 12.8856 3.78121 13.3333 4.3335 13.3333H5.66683C6.21911 13.3333 6.66683 12.8856 6.66683 12.3333V3.66666C6.66683 3.11437 6.21912 2.66666 5.66683 2.66666Z" stroke="#333333" stroke-width="1.4" stroke-linecap="round" stroke-linejoin="round"/>
<path d="M8.99984 2.66666H7.6665C7.11422 2.66666 6.6665 3.11437 6.6665 3.66666V12.3333C6.6665 12.8856 7.11422 13.3333 7.6665 13.3333H8.99984C9.55212 13.3333 9.99984 12.8856 9.99984 12.3333V3.66666C9.99984 3.11437 9.55212 2.66666 8.99984 2.66666Z" stroke="#333333" stroke-width="1.4" stroke-linecap="round" stroke-linejoin="round"/>
<path d="M12.3333 2.66666H11C10.4477 2.66666 10 3.11437 10 3.66666V12.3333C10 12.8856 10.4477 13.3333 11 13.3333H12.3333C12.8856 13.3333 13.3333 12.8856 13.3333 12.3333V3.66666C13.3333 3.11437 12.8856 2.66666 12.3333 2.66666Z" stroke="#333333" stroke-width="1.4" stroke-linecap="round" stroke-linejoin="round"/>
</svg>
