<svg width="16" height="16" viewBox="0 0 16 16" fill="none" xmlns="http://www.w3.org/2000/svg">
<path d="M10.6665 2.66666H11.9998C12.3535 2.66666 12.6926 2.80713 12.9426 3.05718C13.1927 3.30723 13.3332 3.64637 13.3332 3.99999V13.3333C13.3332 13.6869 13.1927 14.0261 12.9426 14.2761C12.6926 14.5262 12.3535 14.6667 11.9998 14.6667H3.99984C3.64622 14.6667 3.30708 14.5262 3.05703 14.2761C2.80698 14.0261 2.6665 13.6869 2.6665 13.3333V3.99999C2.6665 3.64637 2.80698 3.30723 3.05703 3.05718C3.30708 2.80713 3.64622 2.66666 3.99984 2.66666H5.33317" stroke="#333333" stroke-width="1.4" stroke-linecap="round" stroke-linejoin="round"/>
<path d="M10.0002 1.33334H6.00016C5.63197 1.33334 5.3335 1.63182 5.3335 2.00001V3.33334C5.3335 3.70153 5.63197 4.00001 6.00016 4.00001H10.0002C10.3684 4.00001 10.6668 3.70153 10.6668 3.33334V2.00001C10.6668 1.63182 10.3684 1.33334 10.0002 1.33334Z" stroke="#333333" stroke-width="1.4" stroke-linecap="round" stroke-linejoin="round"/>
</svg>
