<svg width="16" height="16" viewBox="0 0 16 16" fill="none" xmlns="http://www.w3.org/2000/svg">
<g clip-path="url(#clip0_363_8307)">
<path d="M12.6645 11.2614C13.4742 11.097 14.1939 10.6376 14.6839 9.9724C15.174 9.30717 15.3993 8.4836 15.3163 7.66156C15.2333 6.83951 14.8477 6.07764 14.2346 5.52385C13.6214 4.97007 12.8243 4.66386 11.9981 4.6647H11.1585C10.9378 3.80999 10.5082 3.0235 9.90842 2.37581C9.30862 1.72813 8.55737 1.23953 7.72211 0.953897C6.88685 0.668259 5.99373 0.59452 5.12293 0.739299C4.25213 0.884079 3.43092 1.24284 2.73302 1.78339C2.03512 2.32393 1.48238 3.02932 1.12443 3.83624C0.766478 4.64316 0.614518 5.52635 0.682194 6.4065C0.749869 7.28665 1.03506 8.13622 1.51216 8.87893C1.98927 9.62164 2.64335 10.2342 3.41568 10.6617" stroke="#333333" stroke-width="1.4" stroke-linecap="round" stroke-linejoin="round"/>
<path d="M8.66667 7.33334L6 11.3333H10L7.33333 15.3333" stroke="#333333" stroke-width="1.4" stroke-linecap="round" stroke-linejoin="round"/>
</g>
<defs>
<clipPath id="clip0_363_8307">
<rect width="16" height="16" fill="white"/>
</clipPath>
</defs>
</svg>
