<svg width="16" height="16" viewBox="0 0 16 16" fill="none" xmlns="http://www.w3.org/2000/svg">
<g clip-path="url(#clip0_363_8316)">
<path d="M13.3371 11.72C14.0379 11.4131 14.6118 10.8744 14.9625 10.1944C15.3131 9.51435 15.4192 8.73441 15.2628 7.98546C15.1065 7.23651 14.6972 6.56414 14.1038 6.08123C13.5104 5.59831 12.7689 5.33424 12.0038 5.33334H11.1638C10.9524 4.51502 10.5497 3.75863 9.98864 3.12654C9.42761 2.49444 8.72439 2.00472 7.93694 1.69775C7.1495 1.39078 6.30037 1.27535 5.45955 1.36096C4.61874 1.44658 3.81031 1.7308 3.1009 2.19019C2.39148 2.64958 1.80141 3.27099 1.3793 4.0032C0.957196 4.73541 0.715147 5.55745 0.673107 6.40157C0.631066 7.24569 0.790238 8.08771 1.1375 8.85824C1.48477 9.62876 2.01018 10.3057 2.67043 10.8333" stroke="#333333" stroke-width="1.4" stroke-linecap="round" stroke-linejoin="round"/>
<path d="M5.3335 10.6667H5.34016" stroke="#333333" stroke-width="1.4" stroke-linecap="round" stroke-linejoin="round"/>
<path d="M5.3335 13.3333H5.34016" stroke="#333333" stroke-width="1.4" stroke-linecap="round" stroke-linejoin="round"/>
<path d="M8 12H8.00667" stroke="#333333" stroke-width="1.4" stroke-linecap="round" stroke-linejoin="round"/>
<path d="M8 14.6667H8.00667" stroke="#333333" stroke-width="1.4" stroke-linecap="round" stroke-linejoin="round"/>
<path d="M10.6665 10.6667H10.6732" stroke="#333333" stroke-width="1.4" stroke-linecap="round" stroke-linejoin="round"/>
<path d="M10.6665 13.3333H10.6732" stroke="#333333" stroke-width="1.4" stroke-linecap="round" stroke-linejoin="round"/>
</g>
<defs>
<clipPath id="clip0_363_8316">
<rect width="16" height="16" fill="white"/>
</clipPath>
</defs>
</svg>
