<svg width="16" height="16" viewBox="0 0 16 16" fill="none" xmlns="http://www.w3.org/2000/svg">
<g clip-path="url(#clip0_363_8301)">
<path d="M11.1599 6.66666H11.9999C12.884 6.66666 13.7318 7.01785 14.3569 7.64297C14.9821 8.26809 15.3332 9.11593 15.3332 9.99999C15.3332 10.884 14.9821 11.7319 14.3569 12.357C13.7318 12.9821 12.884 13.3333 11.9999 13.3333H5.99991C5.00223 13.3341 4.02434 13.055 3.17737 12.5277C2.33039 12.0004 1.64828 11.2462 1.20856 10.3506C0.768838 9.45508 0.589127 8.45414 0.689849 7.46156C0.790571 6.46897 1.16769 5.52454 1.77835 4.73558C2.389 3.94661 3.20872 3.34475 4.14435 2.99838C5.07997 2.65202 6.094 2.57503 7.07119 2.77617C8.04839 2.97732 8.94957 3.44852 9.67234 4.13625C10.3951 4.82398 10.9105 5.70065 11.1599 6.66666Z" stroke="#333333" stroke-width="1.4" stroke-linecap="round" stroke-linejoin="round"/>
</g>
<defs>
<clipPath id="clip0_363_8301">
<rect width="16" height="16" fill="white"/>
</clipPath>
</defs>
</svg>
