<svg width="16" height="16" viewBox="0 0 16 16" fill="none" xmlns="http://www.w3.org/2000/svg">
<g clip-path="url(#clip0_363_8171)">
<path d="M11.9452 1.59126C11.7165 1.68602 11.5086 1.82491 11.3335 2.00001L2.3335 11L1.3335 14.6667L5.00016 13.6667L14.0002 4.66668C14.1753 4.49158 14.3142 4.28371 14.4089 4.05494C14.5037 3.82616 14.5524 3.58096 14.5524 3.33334C14.5524 3.08572 14.5037 2.84052 14.4089 2.61175C14.3142 2.38297 14.1753 2.1751 14.0002 2.00001C13.8251 1.82491 13.6172 1.68602 13.3884 1.59126C13.1597 1.4965 12.9145 1.44772 12.6668 1.44772C12.4192 1.44772 12.174 1.4965 11.9452 1.59126Z" stroke="#333333" stroke-width="1.4" stroke-linecap="round" stroke-linejoin="round"/>
</g>
<defs>
<clipPath id="clip0_363_8171">
<rect width="16" height="16" fill="white"/>
</clipPath>
</defs>
</svg>
