<svg width="16" height="16" viewBox="0 0 16 16" fill="none" xmlns="http://www.w3.org/2000/svg">
<line x1="3.1999" y1="13.3" x2="3.1999" y2="2.7" stroke="#8B8F9F" stroke-width="1.4" stroke-linecap="round"/>
<path d="M14.9597 8.25967C15.2135 8.00583 15.2135 7.59427 14.9597 7.34043L10.8231 3.20386C10.5693 2.95001 10.1577 2.95001 9.90386 3.20386C9.65002 3.4577 9.65002 3.86925 9.90386 4.12309L13.5808 7.80005L9.90386 11.477C9.65002 11.7308 9.65002 12.1424 9.90386 12.3962C10.1577 12.6501 10.5693 12.6501 10.8231 12.3962L14.9597 8.25967ZM5.5 8.45005H10V7.15005L5.5 7.15005V8.45005ZM10 8.45005L14.5001 8.45005V7.15005H10V8.45005Z" fill="#8B8F9F"/>
</svg>
