<svg width="16" height="16" viewBox="0 0 16 16" fill="none" xmlns="http://www.w3.org/2000/svg">
<g clip-path="url(#clip0_363_8211)">
<path d="M8.0001 14.7533L15.1001 9.59334C15.2012 9.52787 15.2785 9.43155 15.3206 9.31866C15.3626 9.20576 15.3671 9.08233 15.3334 8.96667L14.4868 6.46L12.8601 1.45334C12.8463 1.40775 12.821 1.36645 12.7868 1.33334C12.7339 1.28509 12.665 1.25833 12.5934 1.25833C12.5219 1.25833 12.4529 1.28509 12.4001 1.33334C12.3677 1.36268 12.3425 1.39921 12.3268 1.44L10.7001 6.44667H5.3001L3.67343 1.45334C3.65959 1.40775 3.63435 1.36645 3.6001 1.33334C3.54727 1.28509 3.47831 1.25833 3.40676 1.25833C3.33522 1.25833 3.26626 1.28509 3.21343 1.33334C3.18099 1.36268 3.15587 1.39921 3.1401 1.44L1.51343 6.44667L0.700096 8.96667C0.663061 9.07887 0.662463 9.19991 0.698386 9.31247C0.734309 9.42502 0.804913 9.52334 0.900096 9.59334L8.0001 14.7533Z" stroke="#333333" stroke-width="1.4" stroke-linecap="round" stroke-linejoin="round"/>
</g>
<defs>
<clipPath id="clip0_363_8211">
<rect width="16" height="16" fill="white"/>
</clipPath>
</defs>
</svg>
