<svg width="16" height="16" viewBox="0 0 16 16" fill="none" xmlns="http://www.w3.org/2000/svg">
<path d="M12.7038 2.27805C13.1488 2.46243 13.5531 2.73267 13.8936 3.07333C14.2342 3.41383 14.5045 3.81812 14.6889 4.26309C14.8732 4.70807 14.9681 5.185 14.9681 5.66666C14.9681 6.14832 14.8732 6.62526 14.6889 7.07023C14.5045 7.51521 14.2342 7.91949 13.8936 8.26L13.1869 8.96666L8.00024 14.1533L2.81358 8.96666L2.10691 8.26C1.41911 7.5722 1.03271 6.63935 1.03271 5.66666C1.03271 4.69397 1.41911 3.76112 2.10691 3.07333C2.7947 2.38553 3.72755 1.99914 4.70024 1.99914C5.67293 1.99914 6.60578 2.38553 7.29357 3.07333L8.00024 3.78L8.70691 3.07333C9.04741 2.73267 9.4517 2.46243 9.89667 2.27805C10.3416 2.09368 10.8186 1.99878 11.3002 1.99878C11.7819 1.99878 12.2588 2.09368 12.7038 2.27805Z" stroke="#333333" stroke-width="1.4" stroke-linecap="round" stroke-linejoin="round"/>
</svg>
