<svg width="16" height="16" viewBox="0 0 16 16" fill="none" xmlns="http://www.w3.org/2000/svg">
<path d="M14.6668 8H10.6668L9.3335 10H6.66683L5.3335 8H1.3335" stroke="#333333" stroke-width="1.4" stroke-linecap="round" stroke-linejoin="round"/>
<path d="M1.3335 8L3.6335 3.40666C3.74388 3.18452 3.91405 2.99758 4.12486 2.86685C4.33567 2.73612 4.57877 2.6668 4.82683 2.66666H11.1735C11.4216 2.6668 11.6647 2.73612 11.8755 2.86685C12.0863 2.99758 12.2564 3.18452 12.3668 3.40666L14.6668 8V12C14.6668 12.3536 14.5264 12.6928 14.2763 12.9428C14.0263 13.1929 13.6871 13.3333 13.3335 13.3333H2.66683C2.31321 13.3333 1.97407 13.1929 1.72402 12.9428C1.47397 12.6928 1.3335 12.3536 1.3335 12V8Z" stroke="#333333" stroke-width="1.4" stroke-linecap="round" stroke-linejoin="round"/>
</svg>
