<svg width="16" height="16" viewBox="0 0 16 16" fill="none" xmlns="http://www.w3.org/2000/svg">
<g clip-path="url(#clip0_363_8245)">
<path d="M9.99984 4.66666H11.9998C12.4376 4.66666 12.871 4.75288 13.2754 4.9204C13.6799 5.08791 14.0473 5.33345 14.3569 5.64297C14.6664 5.9525 14.9119 6.31997 15.0794 6.72439C15.247 7.1288 15.3332 7.56226 15.3332 8C15.3332 8.43774 15.247 8.87119 15.0794 9.27561C14.9119 9.68003 14.6664 10.0475 14.3569 10.357C14.0473 10.6665 13.6799 10.9121 13.2754 11.0796C12.871 11.2471 12.4376 11.3333 11.9998 11.3333H9.99984M5.99984 11.3333H3.99984C3.5621 11.3333 3.12864 11.2471 2.72423 11.0796C2.31981 10.9121 1.95234 10.6665 1.64281 10.357C1.01769 9.7319 0.666504 8.88405 0.666504 8C0.666504 7.11594 1.01769 6.2681 1.64281 5.64297C2.26794 5.01785 3.11578 4.66666 3.99984 4.66666H5.99984" stroke="#333333" stroke-width="1.4" stroke-linecap="round" stroke-linejoin="round"/>
<path d="M5.3335 8H10.6668" stroke="#333333" stroke-width="1.4" stroke-linecap="round" stroke-linejoin="round"/>
</g>
<defs>
<clipPath id="clip0_363_8245">
<rect width="16" height="16" fill="white"/>
</clipPath>
</defs>
</svg>
