<svg width="16" height="16" viewBox="0 0 16 16" fill="none" xmlns="http://www.w3.org/2000/svg">
<path d="M12.7721 11.6445C13.4692 10.7429 13.8951 9.66147 13.9999 8.52667C13.1011 9.19106 11.9936 9.51077 10.879 9.42765C9.76435 9.34452 8.71656 8.86409 7.9262 8.07373C7.13584 7.28337 6.65541 6.23559 6.57229 5.12094C6.48917 4.0063 6.80888 2.89884 7.47327 2C6.33847 2.10487 5.257 2.53076 4.35541 3.22784C3.45382 3.92491 2.7694 4.86434 2.38224 5.9362C1.99508 7.00806 1.92118 8.16801 2.16921 9.28033C2.41723 10.3927 2.97691 11.4113 3.78275 12.2172C4.5886 13.023 5.60728 13.5827 6.7196 13.8307C7.83192 14.0787 8.99188 14.0049 10.0637 13.6177C11.1356 13.2305 12.075 12.5461 12.7721 11.6445Z" stroke="#333333" stroke-width="1.4" stroke-linecap="round" stroke-linejoin="round"/>
</svg>
