<svg width="16" height="16" viewBox="0 0 16 16" fill="none" xmlns="http://www.w3.org/2000/svg">
<path d="M8.00016 8.66667C8.36835 8.66667 8.66683 8.36819 8.66683 8C8.66683 7.63181 8.36835 7.33333 8.00016 7.33333C7.63197 7.33333 7.3335 7.63181 7.3335 8C7.3335 8.36819 7.63197 8.66667 8.00016 8.66667Z" stroke="#333333" stroke-width="1.4" stroke-linecap="round" stroke-linejoin="round"/>
<path d="M8.00016 4C8.36835 4 8.66683 3.70152 8.66683 3.33333C8.66683 2.96514 8.36835 2.66667 8.00016 2.66667C7.63197 2.66667 7.3335 2.96514 7.3335 3.33333C7.3335 3.70152 7.63197 4 8.00016 4Z" stroke="#333333" stroke-width="1.4" stroke-linecap="round" stroke-linejoin="round"/>
<path d="M8.00016 13.3333C8.36835 13.3333 8.66683 13.0349 8.66683 12.6667C8.66683 12.2985 8.36835 12 8.00016 12C7.63197 12 7.3335 12.2985 7.3335 12.6667C7.3335 13.0349 7.63197 13.3333 8.00016 13.3333Z" stroke="#333333" stroke-width="1.4" stroke-linecap="round" stroke-linejoin="round"/>
</svg>
