<svg width="16" height="16" viewBox="0 0 16 16" fill="none" xmlns="http://www.w3.org/2000/svg">
<path d="M14.2934 7.36667L8.1667 13.4933C7.41613 14.2439 6.39815 14.6656 5.3367 14.6656C4.27524 14.6656 3.25726 14.2439 2.5067 13.4933C1.75613 12.7428 1.33447 11.7248 1.33447 10.6633C1.33447 9.60188 1.75613 8.5839 2.5067 7.83334L8.63336 1.70667C9.13374 1.20629 9.81239 0.925186 10.52 0.925186C11.2277 0.925186 11.9063 1.20629 12.4067 1.70667C12.9071 2.20704 13.1882 2.8857 13.1882 3.59334C13.1882 4.30097 12.9071 4.97963 12.4067 5.48L6.27336 11.6067C6.02318 11.8569 5.68385 11.9974 5.33003 11.9974C4.97621 11.9974 4.63688 11.8569 4.3867 11.6067C4.13651 11.3565 3.99596 11.0172 3.99596 10.6633C3.99596 10.3095 4.13651 9.97019 4.3867 9.72L10.0467 4.06667" stroke="#333333" stroke-width="1.4" stroke-linecap="round" stroke-linejoin="round"/>
</svg>
