<svg width="16" height="16" viewBox="0 0 16 16" fill="none" xmlns="http://www.w3.org/2000/svg">
<g clip-path="url(#clip0_363_8329)">
<path d="M14.1399 10.5933C13.7158 11.5963 13.0525 12.4801 12.2079 13.1675C11.3633 13.8549 10.3631 14.3249 9.2949 14.5365C8.22668 14.7481 7.12289 14.6948 6.08004 14.3812C5.03719 14.0676 4.08703 13.5034 3.31262 12.7378C2.53822 11.9722 1.96315 11.0285 1.6377 9.9893C1.31225 8.9501 1.24632 7.84699 1.44568 6.77642C1.64503 5.70585 2.10361 4.70042 2.78131 3.84802C3.45901 2.99562 4.3352 2.32221 5.33328 1.88667" stroke="#333333" stroke-width="1.4" stroke-linecap="round" stroke-linejoin="round"/>
<path d="M14.1592 5.44878C14.4942 6.25762 14.6667 7.12452 14.6667 8H8V1.33334C8.87548 1.33334 9.74239 1.50577 10.5512 1.84081C11.3601 2.17584 12.095 2.6669 12.714 3.28596C13.3331 3.90501 13.8242 4.63994 14.1592 5.44878Z" stroke="#333333" stroke-width="1.4" stroke-linecap="round" stroke-linejoin="round"/>
</g>
<defs>
<clipPath id="clip0_363_8329">
<rect width="16" height="16" fill="white"/>
</clipPath>
</defs>
</svg>
