<svg width="16" height="16" viewBox="0 0 16 16" fill="none" xmlns="http://www.w3.org/2000/svg">
<path d="M13.3335 2H2.66683C2.31321 2 1.97407 2.14048 1.72402 2.39052C1.47397 2.64057 1.3335 2.97971 1.3335 3.33333V7.33333C1.3335 9.10144 2.03587 10.7971 3.28612 12.0474C3.90517 12.6664 4.6401 13.1575 5.44894 13.4925C6.25778 13.8276 7.12468 14 8.00016 14C9.76827 14 11.464 13.2976 12.7142 12.0474C13.9644 10.7971 14.6668 9.10144 14.6668 7.33333V3.33333C14.6668 2.97971 14.5264 2.64057 14.2763 2.39052C14.0263 2.14048 13.6871 2 13.3335 2Z" stroke="#333333" stroke-width="1.4" stroke-linecap="round" stroke-linejoin="round"/>
<path d="M5.3335 6.66667L8.00016 9.33334L10.6668 6.66667" stroke="#333333" stroke-width="1.4" stroke-linecap="round" stroke-linejoin="round"/>
</svg>
