<svg width="16" height="16" viewBox="0 0 16 16" fill="none" xmlns="http://www.w3.org/2000/svg">
<path d="M7.99984 9.33334C8.73622 9.33334 9.33317 8.73638 9.33317 8.00001C9.33317 7.26363 8.73622 6.66667 7.99984 6.66667C7.26346 6.66667 6.6665 7.26363 6.6665 8.00001C6.6665 8.73638 7.26346 9.33334 7.99984 9.33334Z" stroke="#333333" stroke-width="1.4" stroke-linecap="round" stroke-linejoin="round"/>
<path d="M10.8269 5.17333C11.1988 5.54483 11.4938 5.98598 11.6951 6.47157C11.8964 6.95716 12 7.47767 12 8.00333C12 8.529 11.8964 9.0495 11.6951 9.5351C11.4938 10.0207 11.1988 10.4618 10.8269 10.8333M5.17354 10.8267C4.80163 10.4552 4.5066 10.014 4.3053 9.52843C4.104 9.04284 4.00039 8.52233 4.00039 7.99667C4.00039 7.47101 4.104 6.9505 4.3053 6.46491C4.5066 5.97931 4.80163 5.53816 5.17354 5.16667M12.7135 3.28667C13.9633 4.53685 14.6654 6.23224 14.6654 8C14.6654 9.76776 13.9633 11.4631 12.7135 12.7133M3.28687 12.7133C2.03706 11.4631 1.33496 9.76776 1.33496 8C1.33496 6.23224 2.03706 4.53685 3.28687 3.28667" stroke="#333333" stroke-width="1.4" stroke-linecap="round" stroke-linejoin="round"/>
</svg>
