<svg width="16" height="16" viewBox="0 0 16 16" fill="none" xmlns="http://www.w3.org/2000/svg">
<line x1="0.7" y1="-0.7" x2="11.3" y2="-0.7" transform="matrix(0 -1 -1 0 12.5 14)" stroke="#8B8F9F" stroke-width="1.4" stroke-linecap="round"/>
<path d="M1.44023 8.25967C1.18639 8.00583 1.18639 7.59427 1.44023 7.34043L5.57681 3.20386C5.83065 2.95001 6.2422 2.95001 6.49604 3.20386C6.74989 3.4577 6.74989 3.86925 6.49604 4.12309L2.81909 7.80005L6.49604 11.477C6.74989 11.7308 6.74989 12.1424 6.49604 12.3962C6.2422 12.6501 5.83065 12.6501 5.57681 12.3962L1.44023 8.25967ZM10.8999 8.45005H6.39988V7.15005L10.8999 7.15005V8.45005ZM6.39988 8.45005L1.89985 8.45005V7.15005H6.39988V8.45005Z" fill="#8B8F9F"/>
</svg>
