<svg width="16" height="16" viewBox="0 0 16 16" fill="none" xmlns="http://www.w3.org/2000/svg">
<path d="M2 3.99999L4 1.33333H12L14 3.99999V13.3333C14 13.6869 13.8595 14.0261 13.6095 14.2761C13.3594 14.5262 13.0203 14.6667 12.6667 14.6667H3.33333C2.97971 14.6667 2.64057 14.5262 2.39052 14.2761C2.14048 14.0261 2 13.6869 2 13.3333V3.99999Z" stroke="#333333" stroke-width="1.4" stroke-linecap="round" stroke-linejoin="round"/>
<path d="M2 4H14" stroke="#333333" stroke-width="1.4" stroke-linecap="round" stroke-linejoin="round"/>
<path d="M10.6668 6.66667C10.6668 7.37392 10.3859 8.05219 9.88578 8.55229C9.38568 9.05239 8.70741 9.33334 8.00016 9.33334C7.29292 9.33334 6.61464 9.05239 6.11454 8.55229C5.61445 8.05219 5.3335 7.37392 5.3335 6.66667" stroke="#333333" stroke-width="1.4" stroke-linecap="round" stroke-linejoin="round"/>
</svg>
