<svg width="16" height="16" viewBox="0 0 16 16" fill="none" xmlns="http://www.w3.org/2000/svg">
<g clip-path="url(#clip0_363_8276)">
<path d="M8.6665 5.66666C8.6665 6.22 9.11317 6.66666 9.6665 6.66666C10.2198 6.66666 10.6665 6.22 10.6665 5.66666V2.33333C10.6665 1.77999 10.2198 1.33333 9.6665 1.33333C9.11317 1.33333 8.6665 1.77999 8.6665 2.33333V5.66666Z" stroke="#333333" stroke-width="1.4" stroke-linecap="round" stroke-linejoin="round"/>
<path d="M12.6665 6.66667H13.6665C14.2198 6.66667 14.6665 6.22001 14.6665 5.66667C14.6665 5.11334 14.2198 4.66667 13.6665 4.66667C13.1132 4.66667 12.6665 5.11334 12.6665 5.66667V6.66667Z" stroke="#333333" stroke-width="1.4" stroke-linecap="round" stroke-linejoin="round"/>
<path d="M7.3335 10.3333C7.3335 9.77999 6.88683 9.33333 6.3335 9.33333C5.78016 9.33333 5.3335 9.77999 5.3335 10.3333V13.6667C5.3335 14.22 5.78016 14.6667 6.3335 14.6667C6.88683 14.6667 7.3335 14.22 7.3335 13.6667V10.3333Z" stroke="#333333" stroke-width="1.4" stroke-linecap="round" stroke-linejoin="round"/>
<path d="M3.3335 9.33333H2.3335C1.78016 9.33333 1.3335 9.77999 1.3335 10.3333C1.3335 10.8867 1.78016 11.3333 2.3335 11.3333C2.88683 11.3333 3.3335 10.8867 3.3335 10.3333V9.33333Z" stroke="#333333" stroke-width="1.4" stroke-linecap="round" stroke-linejoin="round"/>
<path d="M10.3335 8.66667C9.78016 8.66667 9.3335 9.11334 9.3335 9.66667C9.3335 10.22 9.78016 10.6667 10.3335 10.6667H13.6668C14.2202 10.6667 14.6668 10.22 14.6668 9.66667C14.6668 9.11334 14.2202 8.66667 13.6668 8.66667H10.3335Z" stroke="#333333" stroke-width="1.4" stroke-linecap="round" stroke-linejoin="round"/>
<path d="M9.3335 12.6667H10.3335C10.8868 12.6667 11.3335 13.1133 11.3335 13.6667C11.3335 14.22 10.8868 14.6667 10.3335 14.6667C9.78016 14.6667 9.3335 14.22 9.3335 13.6667V12.6667Z" stroke="#333333" stroke-width="1.4" stroke-linecap="round" stroke-linejoin="round"/>
<path d="M5.66683 5.33333C6.22016 5.33333 6.66683 5.77999 6.66683 6.33333C6.66683 6.88666 6.22016 7.33333 5.66683 7.33333H2.3335C1.78016 7.33333 1.3335 6.88666 1.3335 6.33333C1.3335 5.77999 1.78016 5.33333 2.3335 5.33333H5.66683Z" stroke="#333333" stroke-width="1.4" stroke-linecap="round" stroke-linejoin="round"/>
<path d="M6.6665 3.33333H5.6665C5.11317 3.33333 4.6665 2.88666 4.6665 2.33333C4.6665 1.77999 5.11317 1.33333 5.6665 1.33333C6.21984 1.33333 6.6665 1.77999 6.6665 2.33333V3.33333Z" stroke="#333333" stroke-width="1.4" stroke-linecap="round" stroke-linejoin="round"/>
</g>
<defs>
<clipPath id="clip0_363_8276">
<rect width="16" height="16" fill="white"/>
</clipPath>
</defs>
</svg>
