<svg width="16" height="16" viewBox="0 0 16 16" fill="none" xmlns="http://www.w3.org/2000/svg">
<g clip-path="url(#clip0_363_8356)">
<path d="M9.33317 2.33332V9.83999C9.86832 10.1976 10.2743 10.7177 10.4911 11.3237C10.708 11.9297 10.7242 12.5894 10.5373 13.2053C10.3505 13.8212 9.97056 14.3606 9.45361 14.744C8.93666 15.1274 8.31011 15.3344 7.6665 15.3344C7.02289 15.3344 6.39635 15.1274 5.8794 14.744C5.36244 14.3606 4.9825 13.8212 4.79568 13.2053C4.60885 12.5894 4.62505 11.9297 4.84189 11.3237C5.05872 10.7177 5.46469 10.1976 5.99984 9.83999V2.33332C5.99984 1.8913 6.17543 1.46737 6.48799 1.15481C6.80055 0.842251 7.22448 0.666656 7.6665 0.666656C8.10853 0.666656 8.53245 0.842251 8.84502 1.15481C9.15758 1.46737 9.33317 1.8913 9.33317 2.33332Z" stroke="#333333" stroke-width="1.4" stroke-linecap="round" stroke-linejoin="round"/>
</g>
<defs>
<clipPath id="clip0_363_8356">
<rect width="16" height="16" fill="white"/>
</clipPath>
</defs>
</svg>
