<svg width="16" height="16" viewBox="0 0 16 16" fill="none" xmlns="http://www.w3.org/2000/svg">
<g clip-path="url(#clip0_363_8364)">
<path d="M4.66683 7.33334L7.3335 1.33334C7.86393 1.33334 8.37264 1.54406 8.74771 1.91913C9.12278 2.2942 9.3335 2.80291 9.3335 3.33334V6.00001H13.1068C13.3001 5.99782 13.4915 6.03768 13.6679 6.11682C13.8442 6.19596 14.0012 6.3125 14.1281 6.45835C14.2549 6.60421 14.3485 6.77589 14.4024 6.96151C14.4563 7.14713 14.4692 7.34225 14.4402 7.53334L13.5202 13.5333C13.4719 13.8513 13.3105 14.1411 13.0654 14.3493C12.8204 14.5576 12.5084 14.6703 12.1868 14.6667H4.66683M4.66683 7.33334V14.6667M4.66683 7.33334H2.66683C2.31321 7.33334 1.97407 7.47382 1.72402 7.72387C1.47397 7.97392 1.3335 8.31306 1.3335 8.66668V13.3333C1.3335 13.687 1.47397 14.0261 1.72402 14.2762C1.97407 14.5262 2.31321 14.6667 2.66683 14.6667H4.66683" stroke="#333333" stroke-width="1.4" stroke-linecap="round" stroke-linejoin="round"/>
</g>
<defs>
<clipPath id="clip0_363_8364">
<rect width="16" height="16" fill="white"/>
</clipPath>
</defs>
</svg>
