<svg width="16" height="16" viewBox="0 0 16 16" fill="none" xmlns="http://www.w3.org/2000/svg">
<g clip-path="url(#clip0_363_8324)">
<path d="M13.2398 3.01999C13.9879 2.79473 14.6948 2.45031 15.3332 1.99999C15.1071 2.92847 14.6269 3.77565 13.9465 4.44666C13.9814 4.62905 13.9992 4.81429 13.9998 4.99999C13.9998 12.6667 6.6665 16 0.666504 12.6667C2.32461 12.7326 3.96019 12.2653 5.33317 11.3333C-0.666829 8.66666 1.99984 2.66666 1.99984 2.66666C2.67338 3.62575 3.57367 4.40338 4.62051 4.93029C5.66735 5.4572 6.82826 5.71704 7.99984 5.68666V5.01999C7.99164 4.40821 8.17152 3.80868 8.51516 3.30247C8.8588 2.79626 9.34962 2.4078 9.92122 2.18963C10.4928 1.97145 11.1177 1.9341 11.7112 2.08261C12.3047 2.23112 12.8383 2.55833 13.2398 3.01999Z" stroke="#333333" stroke-width="1.4" stroke-linecap="round" stroke-linejoin="round"/>
</g>
<defs>
<clipPath id="clip0_363_8324">
<rect width="16" height="16" fill="white"/>
</clipPath>
</defs>
</svg>
