<svg width="16" height="16" viewBox="0 0 16 16" fill="none" xmlns="http://www.w3.org/2000/svg">
<g clip-path="url(#clip0_363_8373)">
<path d="M8.00016 12.6667C10.5775 12.6667 12.6668 10.5773 12.6668 8.00001C12.6668 5.42268 10.5775 3.33334 8.00016 3.33334C5.42283 3.33334 3.3335 5.42268 3.3335 8.00001C3.3335 10.5773 5.42283 12.6667 8.00016 12.6667Z" stroke="#333333" stroke-width="1.4" stroke-linecap="round" stroke-linejoin="round"/>
<path d="M8 6V8L9 9" stroke="#333333" stroke-width="1.4" stroke-linecap="round" stroke-linejoin="round"/>
<path d="M11.0068 11.5667L10.7735 14.12C10.7434 14.4524 10.5898 14.7615 10.3429 14.9862C10.0961 15.2108 9.77393 15.3347 9.44015 15.3333H6.55348C6.2197 15.3347 5.89755 15.2108 5.65069 14.9862C5.40382 14.7615 5.25019 14.4524 5.22015 14.12L4.98682 11.5667M4.99348 4.43333L5.22682 1.88C5.25675 1.54872 5.40944 1.24059 5.65489 1.0161C5.90035 0.791615 6.22085 0.666981 6.55348 0.666667H9.45348C9.78726 0.665313 10.1094 0.7892 10.3563 1.01385C10.6031 1.2385 10.7568 1.54757 10.7868 1.88L11.0202 4.43333" stroke="#333333" stroke-width="1.4" stroke-linecap="round" stroke-linejoin="round"/>
</g>
<defs>
<clipPath id="clip0_363_8373">
<rect width="16" height="16" fill="white"/>
</clipPath>
</defs>
</svg>
