<svg width="16" height="16" viewBox="0 0 16 16" fill="none" xmlns="http://www.w3.org/2000/svg">
<g clip-path="url(#clip0_363_8381)">
<path d="M0.666504 0.666656L15.3332 15.3333" stroke="#333333" stroke-width="1.4" stroke-linecap="round" stroke-linejoin="round"/>
<path d="M11.1465 7.37332C11.6926 7.63982 12.2032 7.97352 12.6665 8.36665" stroke="#333333" stroke-width="1.4" stroke-linecap="round" stroke-linejoin="round"/>
<path d="M3.3335 8.36668C4.32155 7.54057 5.51074 6.99082 6.78016 6.77335" stroke="#333333" stroke-width="1.4" stroke-linecap="round" stroke-linejoin="round"/>
<path d="M7.14014 3.36668C8.56841 3.25159 10.0052 3.42545 11.3648 3.87789C12.7244 4.33033 13.9789 5.05206 15.0535 6.00001" stroke="#333333" stroke-width="1.4" stroke-linecap="round" stroke-linejoin="round"/>
<path d="M0.946777 5.99999C1.87155 5.18255 2.93191 4.5328 4.08011 4.07999" stroke="#333333" stroke-width="1.4" stroke-linecap="round" stroke-linejoin="round"/>
<path d="M5.68652 10.74C6.36332 10.2592 7.17297 10.0008 8.00319 10.0008C8.83341 10.0008 9.64306 10.2592 10.3199 10.74" stroke="#333333" stroke-width="1.4" stroke-linecap="round" stroke-linejoin="round"/>
<path d="M8 13.3333H8.00667" stroke="#333333" stroke-width="1.4" stroke-linecap="round" stroke-linejoin="round"/>
</g>
<defs>
<clipPath id="clip0_363_8381">
<rect width="16" height="16" fill="white"/>
</clipPath>
</defs>
</svg>
