<svg width="16" height="16" viewBox="0 0 16 16" fill="none" xmlns="http://www.w3.org/2000/svg">
<path d="M6.3935 3.06001C6.54837 2.90422 6.73933 2.7891 6.94941 2.7249C7.15949 2.6607 7.38218 2.6494 7.59768 2.692C7.81318 2.73461 8.01482 2.82979 8.18467 2.96911C8.35451 3.10842 8.48731 3.28753 8.57125 3.49054C8.65519 3.69354 8.68767 3.91414 8.66581 4.13272C8.64395 4.3513 8.56842 4.56109 8.44593 4.74345C8.32345 4.9258 8.15781 5.07507 7.96374 5.17799C7.76966 5.2809 7.55317 5.33426 7.3335 5.33334H1.3335M8.3935 12.94C8.54837 13.0958 8.73933 13.2109 8.94941 13.2751C9.15949 13.3393 9.38218 13.3506 9.59768 13.308C9.81318 13.2654 10.0148 13.1702 10.1847 13.0309C10.3545 12.8916 10.4873 12.7125 10.5712 12.5095C10.6552 12.3065 10.6877 12.0859 10.6658 11.8673C10.6439 11.6487 10.5684 11.4389 10.4459 11.2566C10.3235 11.0742 10.1578 10.9249 9.96374 10.822C9.76966 10.7191 9.55317 10.6658 9.3335 10.6667H1.3335M11.8202 5.15334C12.0141 4.95993 12.2526 4.81729 12.5148 4.73802C12.7769 4.65875 13.0546 4.6453 13.3232 4.69887C13.5917 4.75243 13.843 4.87135 14.0547 5.04512C14.2663 5.21889 14.4319 5.44214 14.5368 5.69514C14.6417 5.94813 14.6826 6.22307 14.6559 6.49564C14.6293 6.76821 14.5358 7.03 14.3839 7.25787C14.232 7.48574 14.0263 7.67267 13.7849 7.80211C13.5436 7.93155 13.274 7.99952 13.0002 8.00001H1.3335" stroke="#333333" stroke-width="1.4" stroke-linecap="round" stroke-linejoin="round"/>
</svg>
